<svg xmlns="http://www.w3.org/2000/svg" width="42.853" height="26.778" viewBox="0 0 42.853 26.778">
  <path id="Icon_ionic-ios-cloud-outline" data-name="Icon ionic-ios-cloud-outline" d="M24.1,9.093a10.214,10.214,0,0,1,10.15,9.1l.1.929a1.093,1.093,0,0,0,.9.962l.92.167a5.226,5.226,0,0,1,3.071,1.849,5.585,5.585,0,0,1,1.272,3.523,5.778,5.778,0,0,1-1.582,3.916,5.134,5.134,0,0,1-3.69,1.64H7.607a5.046,5.046,0,0,1-3.674-1.648A5.763,5.763,0,0,1,2.351,25.62a5.967,5.967,0,0,1,1.1-3.423,5.417,5.417,0,0,1,2.82-2.1l.862-.276A1.1,1.1,0,0,0,7.891,18.8l.017-.9a4.076,4.076,0,0,1,1.13-2.711,3.451,3.451,0,0,1,2.5-1.121,3.634,3.634,0,0,1,1.364.268l.929.377a1.092,1.092,0,0,0,1.314-.393l.569-.82a10.182,10.182,0,0,1,8.385-4.4m0-2.343a12.534,12.534,0,0,0-10.326,5.414,5.932,5.932,0,0,0-2.251-.444,6.2,6.2,0,0,0-5.975,6.142A8.174,8.174,0,0,0,0,25.62a7.87,7.87,0,0,0,7.607,7.908h27.64a7.876,7.876,0,0,0,1.339-15.581A12.566,12.566,0,0,0,24.1,6.75Z" transform="translate(0 -6.75)" fill="#fff"/>
</svg>
