<svg xmlns="http://www.w3.org/2000/svg" width="103.654" height="103.654" viewBox="0 0 103.654 103.654">
  <path id="Icon_awesome-linkedin" data-name="Icon awesome-linkedin" d="M96.25,2.25H7.381A7.436,7.436,0,0,0,0,9.723V98.431A7.436,7.436,0,0,0,7.381,105.9H96.25a7.455,7.455,0,0,0,7.4-7.473V9.723A7.455,7.455,0,0,0,96.25,2.25ZM31.328,91.1H15.965V41.629H31.351V91.1ZM23.646,34.873a8.908,8.908,0,1,1,8.908-8.908,8.912,8.912,0,0,1-8.908,8.908ZM88.916,91.1H73.553V67.034c0-5.738-.116-13.119-7.982-13.119-8.005,0-9.232,6.247-9.232,12.7V91.1H40.976V41.629H55.714v6.756h.208C57.982,44.5,63,40.4,70.476,40.4c15.548,0,18.44,10.25,18.44,23.577Z" transform="translate(0 -2.25)" fill="#fff"/>
</svg>
