<svg xmlns="http://www.w3.org/2000/svg" width="68.811" height="60.212" viewBox="0 0 68.811 60.212">
  <path id="Icon_awesome-react" data-name="Icon awesome-react" d="M56.2,21.763q-1.089-.363-2.177-.685c.121-.5.228-.995.336-1.492,1.653-8.01.564-14.448-3.1-16.571-3.535-2.029-9.3.081-15.133,5.161-.578.5-1.142,1.021-1.68,1.546-.363-.349-.739-.7-1.115-1.035C27.215,3.257,21.087.972,17.418,3.109c-3.521,2.043-4.569,8.1-3.091,15.684.148.753.309,1.492.5,2.244-.86.242-1.707.511-2.5.793C5.147,24.317,0,28.241,0,32.3c0,4.193,5.483,8.4,12.942,10.953.6.2,1.21.4,1.828.578-.2.806-.376,1.6-.538,2.419-1.411,7.459-.309,13.372,3.212,15.4,3.629,2.1,9.73-.054,15.671-5.255.47-.417.941-.847,1.411-1.3.591.578,1.21,1.129,1.828,1.667,5.752,4.946,11.437,6.948,14.945,4.919,3.629-2.1,4.811-8.453,3.279-16.195q-.181-.887-.4-1.814c.43-.121.847-.255,1.263-.39,7.755-2.567,13.372-6.72,13.372-10.98,0-4.072-5.3-8.023-12.606-10.537ZM38.021,10.353c5-4.354,9.663-6.061,11.786-4.838,2.271,1.3,3.145,6.572,1.72,13.493-.094.457-.188.9-.309,1.344a68.8,68.8,0,0,0-9.045-1.425,67.9,67.9,0,0,0-5.725-7.136c.524-.5,1.035-.968,1.572-1.438ZM22.471,39.275c.685,1.169,1.384,2.338,2.123,3.481a60.856,60.856,0,0,1-6.236-1.008,62.782,62.782,0,0,1,2.191-5.981c.618,1.183,1.25,2.352,1.922,3.508ZM18.4,23.107c1.935-.43,3.992-.779,6.128-1.048-.712,1.115-1.411,2.258-2.07,3.414s-1.3,2.312-1.908,3.494c-.847-2-1.559-3.965-2.15-5.86Zm3.682,9.26c.887-1.855,1.855-3.669,2.876-5.456s2.123-3.521,3.279-5.228c2.016-.148,4.072-.228,6.169-.228s4.166.081,6.169.228q1.714,2.54,3.266,5.2t2.916,5.43q-1.351,2.782-2.9,5.483c-1.021,1.787-2.11,3.521-3.252,5.241-2,.148-4.086.215-6.2.215s-4.153-.067-6.128-.188q-1.754-2.56-3.306-5.241c-1.035-1.787-1.989-3.6-2.89-5.456Zm24.272,6.881c.685-1.183,1.331-2.379,1.962-3.588a62.387,62.387,0,0,1,2.271,5.954,59.032,59.032,0,0,1-6.317,1.075C45,41.56,45.681,40.4,46.353,39.248Zm1.935-10.281c-.632-1.183-1.277-2.365-1.949-3.521S45,23.175,44.283,22.059a61.846,61.846,0,0,1,6.169,1.075A59.479,59.479,0,0,1,48.288,28.967ZM34.432,13.848a59.016,59.016,0,0,1,3.978,4.811c-2.661-.121-5.336-.121-8,0C31.731,16.925,33.088,15.312,34.432,13.848ZM18.842,5.609c2.258-1.317,7.271.564,12.553,5.241.336.3.672.618,1.021.941a68.28,68.28,0,0,0-5.766,7.136,70.844,70.844,0,0,0-9.031,1.4c-.175-.685-.323-1.384-.47-2.083-1.263-6.5-.43-11.41,1.693-12.633ZM15.55,41.036c-.564-.161-1.115-.336-1.667-.524a27.411,27.411,0,0,1-8.467-4.193A6.031,6.031,0,0,1,2.89,32.3c0-2.459,4.247-5.6,10.375-7.741.766-.269,1.546-.511,2.325-.739a71.464,71.464,0,0,0,3.293,8.548A73.464,73.464,0,0,0,15.55,41.036ZM31.22,54.207a24.6,24.6,0,0,1-7.58,4.744,5.948,5.948,0,0,1-4.744.175c-2.137-1.236-3.024-5.981-1.814-12.364.148-.753.309-1.505.5-2.244A67.233,67.233,0,0,0,26.7,45.834,70.925,70.925,0,0,0,32.51,53.01C32.08,53.427,31.65,53.83,31.22,54.207Zm3.293-3.266c-1.371-1.478-2.742-3.118-4.072-4.879,1.29.054,2.621.081,3.965.081,1.384,0,2.742-.027,4.086-.094a57.958,57.958,0,0,1-3.978,4.892Zm17.566,4.032a5.973,5.973,0,0,1-2.218,4.207c-2.137,1.236-6.693-.376-11.612-4.6-.564-.484-1.129-1.008-1.707-1.546a66.483,66.483,0,0,0,5.671-7.2,66.252,66.252,0,0,0,9.166-1.411c.134.551.255,1.1.363,1.64a24.5,24.5,0,0,1,.336,8.91Zm2.446-14.448c-.376.121-.753.242-1.142.349A68.272,68.272,0,0,0,49.955,32.3a67.931,67.931,0,0,0,3.293-8.453c.7.2,1.371.417,2.016.632,6.263,2.15,10.658,5.349,10.658,7.795,0,2.634-4.69,6.034-11.4,8.252ZM34.405,38.509a6.155,6.155,0,1,0-6.155-6.155A6.154,6.154,0,0,0,34.405,38.509Z" transform="translate(0 -2.251)" fill="#b8b8b8"/>
</svg>
