        <svg
          xmlns="http://www.w3.org/2000/svg"
          width="33.163"
          height="33.162"
          viewBox="0 0 33.163 33.162"
        >
          <path
            id="Icon_metro-wrench"
            data-name="Icon metro-wrench"
            d="M33.778,27.377,19.447,15.094A8.965,8.965,0,0,0,8.929,2.312L14.107,7.49a2,2,0,0,1,0,2.816l-3.158,3.158a2,2,0,0,1-2.816,0L2.955,8.287A8.964,8.964,0,0,0,15.736,18.8l12.283,14.33a1.82,1.82,0,0,0,2.7.1l3.158-3.158a1.82,1.82,0,0,0-.1-2.7Z"
            transform="translate(-1.921 -1.278)"
            fill="none"
            stroke="#fff"
            stroke-width="1.3"
          />
        </svg>